<?xml version="1.0" encoding="UTF-8" standalone="no"?>
<!DOCTYPE svg PUBLIC "-//W3C//DTD SVG 1.1//EN"
 "http://www.w3.org/Graphics/SVG/1.1/DTD/svg11.dtd">
<!-- Generated by graphviz version 2.43.0 (0)
 -->
<!-- Title: IPK25ChatClient::Common::UserCommand Pages: 1 -->
<svg width="249pt" height="294pt"
 viewBox="0.00 0.00 249.00 294.00" xmlns="http://www.w3.org/2000/svg" xmlns:xlink="http://www.w3.org/1999/xlink">
<g id="graph0" class="graph" transform="scale(1 1) rotate(0) translate(4 290)">
<title>IPK25ChatClient::Common::UserCommand</title>
<!-- Node1 -->
<g id="Node000001" class="node">
<title>Node1</title>
<g id="a_Node000001"><a xlink:title="Represents a parsed user command or message.">
<polygon fill="#999999" stroke="transparent" points="241,-60 0,-60 0,0 241,0 241,-60"/>
<text text-anchor="start" x="17" y="-48" font-family="Helvetica,sans-Serif" font-size="10.00">IPK25ChatClient::Common::UserCommand</text>
<text text-anchor="start" x="4.5" y="-33" font-family="Helvetica,sans-Serif" font-size="10.00">+</text>
<text text-anchor="start" x="17.5" y="-33" font-family="Helvetica,sans-Serif" font-size="10.00">Enums::UserCommandType mCommandType</text>
<text text-anchor="start" x="4.5" y="-18" font-family="Helvetica,sans-Serif" font-size="10.00">+</text>
<text text-anchor="start" x="17.5" y="-18" font-family="Helvetica,sans-Serif" font-size="10.00">bool operator==(const UserCommand</text>
<text text-anchor="start" x="17.5" y="-7" font-family="Helvetica,sans-Serif" font-size="10.00"> &amp;other) const =default</text>
<polygon fill="#666666" stroke="#666666" points="0.5,-43 0.5,-43 241.5,-43 241.5,-43 0.5,-43"/>
<polygon fill="#666666" stroke="#666666" points="0.5,-28 0.5,-28 15.5,-28 15.5,-28 0.5,-28"/>
<polygon fill="#666666" stroke="#666666" points="15.5,-28 15.5,-28 241.5,-28 241.5,-28 15.5,-28"/>
<polygon fill="none" stroke="#666666" points="0,0 0,-60 241,-60 241,0 0,0"/>
</a>
</g>
</g>
<!-- Node2 -->
<g id="Node000002" class="node">
<title>Node2</title>
<g id="a_Node000002"><a xlink:title=" ">
<polygon fill="white" stroke="transparent" points="150,-200 91,-200 91,-151 150,-151 150,-200"/>
<text text-anchor="start" x="96.5" y="-187.5" font-family="Helvetica,sans-Serif" font-size="10.00">std::string</text>
<text text-anchor="start" x="119" y="-172.5" font-family="Helvetica,sans-Serif" font-size="10.00"> </text>
<text text-anchor="start" x="119" y="-157.5" font-family="Helvetica,sans-Serif" font-size="10.00"> </text>
<polygon fill="#666666" stroke="#666666" points="91.5,-182.5 91.5,-182.5 150.5,-182.5 150.5,-182.5 91.5,-182.5"/>
<polygon fill="#666666" stroke="#666666" points="91.5,-167.5 91.5,-167.5 150.5,-167.5 150.5,-167.5 91.5,-167.5"/>
<polygon fill="none" stroke="#666666" points="91,-151 91,-200 150,-200 150,-151 91,-151"/>
</a>
</g>
</g>
<!-- Node2&#45;&gt;Node1 -->
<g id="edge1_Node000001_Node000002" class="edge">
<title>Node2&#45;&gt;Node1</title>
<g id="a_edge1_Node000001_Node000002"><a xlink:title=" ">
<path fill="none" stroke="#63b8ff" d="M120.5,-150.8C120.5,-129.56 120.5,-97.9 120.5,-72.47"/>
<polygon fill="none" stroke="#63b8ff" points="120.5,-72.19 116.5,-66.19 120.5,-60.19 124.5,-66.19 120.5,-72.19"/>
</a>
</g>
<text text-anchor="middle" x="170.5" y="-125" font-family="Helvetica,sans-Serif" font-size="10.00" fill="grey"> +mChannelId</text>
<text text-anchor="middle" x="170.5" y="-114" font-family="Helvetica,sans-Serif" font-size="10.00" fill="grey">+mDisplayName</text>
<text text-anchor="middle" x="170.5" y="-103" font-family="Helvetica,sans-Serif" font-size="10.00" fill="grey">+mMessageContent</text>
<text text-anchor="middle" x="170.5" y="-92" font-family="Helvetica,sans-Serif" font-size="10.00" fill="grey">+mSecret</text>
<text text-anchor="middle" x="170.5" y="-81" font-family="Helvetica,sans-Serif" font-size="10.00" fill="grey">+mUsername</text>
</g>
<!-- Node3 -->
<g id="Node000003" class="node">
<title>Node3</title>
<g id="a_Node000003"><a xlink:title=" ">
<polygon fill="white" stroke="transparent" points="188,-286 53,-286 53,-237 188,-237 188,-286"/>
<text text-anchor="start" x="58.5" y="-273.5" font-family="Helvetica,sans-Serif" font-size="10.00">std::basic_string&lt; Char &gt;</text>
<text text-anchor="start" x="119" y="-258.5" font-family="Helvetica,sans-Serif" font-size="10.00"> </text>
<text text-anchor="start" x="119" y="-243.5" font-family="Helvetica,sans-Serif" font-size="10.00"> </text>
<polygon fill="#666666" stroke="#666666" points="53.5,-268.5 53.5,-268.5 188.5,-268.5 188.5,-268.5 53.5,-268.5"/>
<polygon fill="#666666" stroke="#666666" points="53.5,-253.5 53.5,-253.5 188.5,-253.5 188.5,-253.5 53.5,-253.5"/>
<polygon fill="none" stroke="#666666" points="53,-237 53,-286 188,-286 188,-237 53,-237"/>
</a>
</g>
</g>
<!-- Node3&#45;&gt;Node2 -->
<g id="edge2_Node000002_Node000003" class="edge">
<title>Node3&#45;&gt;Node2</title>
<g id="a_edge2_Node000002_Node000003"><a xlink:title=" ">
<path fill="none" stroke="#63b8ff" d="M120.5,-226.57C120.5,-217.69 120.5,-208.32 120.5,-200.12"/>
<polygon fill="none" stroke="#63b8ff" points="117,-226.65 120.5,-236.65 124,-226.65 117,-226.65"/>
</a>
</g>
</g>
</g>
</svg>
